<svg xmlns="http://www.w3.org/2000/svg" xmlns:xlink="http://www.w3.org/1999/xlink" width="500" zoomAndPan="magnify" viewBox="0 0 375 374.999991" height="500" preserveAspectRatio="xMidYMid meet" version="1.0"><defs><clipPath id="f8e9359d8c"><path d="M 99.832031 74.472656 L 111.832031 74.472656 L 111.832031 150.222656 L 99.832031 150.222656 Z M 99.832031 74.472656 " clip-rule="nonzero"/></clipPath><clipPath id="315a09323f"><path d="M 225.375 74.472656 L 237.375 74.472656 L 237.375 150.222656 L 225.375 150.222656 Z M 225.375 74.472656 " clip-rule="nonzero"/></clipPath><clipPath id="f15706ae34"><path d="M 159.089844 37.644531 L 177.839844 37.644531 L 177.839844 158.394531 L 159.089844 158.394531 Z M 159.089844 37.644531 " clip-rule="nonzero"/></clipPath></defs><path fill="#b29676" d="M 66.585938 207.847656 C 66.585938 207.847656 81.769531 245.894531 115.609375 273.425781 C 149.449219 300.976562 198.460938 296.3125 226.003906 259.652344 C 253.550781 223.015625 259.386719 202.941406 277.113281 187.78125 C 294.855469 172.597656 330.34375 171.726562 326.152344 211.867188 C 321.945312 252.019531 288.832031 279.925781 267.816406 269.644531 C 253.28125 262.546875 257.0625 240.359375 268.054688 230.398438 C 276.6875 222.570312 293.703125 224.5625 293.703125 237.515625 C 293.703125 243.777344 288.628906 248.859375 282.363281 248.859375 C 277.113281 248.859375 272.6875 245.269531 271.402344 240.414062 C 263.703125 257.144531 276.523438 269.433594 295.613281 247.117188 C 307.25 233.535156 315.839844 210.664062 305.558594 199.292969 C 299.078125 192.113281 281.226562 197.410156 269.960938 214.523438 C 251.003906 243.335938 229.070312 302.8125 172.601562 307.003906 C 114.324219 311.3125 80.578125 257.609375 66.585938 207.847656 Z M 66.585938 207.847656 " fill-opacity="1" fill-rule="evenodd"/><path fill="#e6c9a7" d="M 87.15625 234.09375 C 120.917969 287.308594 174.777344 306.789062 218.535156 261.007812 C 227.28125 251.867188 235.550781 240.339844 243.535156 226.628906 C 157.402344 279.417969 157.433594 216.765625 87.15625 234.09375 Z M 87.15625 234.09375 " fill-opacity="1" fill-rule="evenodd"/><path fill="#b29676" d="M 136.179688 162.679688 C 89.703125 170.621094 74.792969 187.953125 88.425781 196.519531 C 147.808594 233.792969 323.269531 190.875 225.101562 171.898438 C 195.6875 166.222656 170.292969 167.203125 156.007812 171.394531 C 146.074219 174.308594 135.78125 183.558594 150.707031 188.300781 C 164.988281 192.839844 197.75 188.632812 188.121094 194.546875 C 180.089844 199.480469 157.621094 200.648438 138.703125 198.371094 C 44.683594 187.019531 157.921875 150.394531 224.671875 163.167969 C 247.996094 167.628906 263.238281 175.851562 264.554688 185.558594 C 267.351562 206.371094 223.773438 217.457031 182.246094 220.429688 C 139.125 223.496094 97.613281 218.042969 81.335938 210.660156 C 53.554688 198.054688 61.015625 165.957031 136.179688 162.679688 Z M 136.179688 162.679688 " fill-opacity="1" fill-rule="evenodd"/><g clip-path="url(#f8e9359d8c)"><path fill="#b29676" d="M 103.214844 145.824219 C 102.511719 144.320312 101.921875 142.761719 101.433594 141.167969 C 101.195312 140.375 100.980469 139.574219 100.792969 138.765625 C 100.601562 137.945312 100.441406 137.121094 100.304688 136.289062 C 100.273438 136.082031 100.238281 135.878906 100.207031 135.671875 C 100.203125 135.648438 100.128906 135.078125 100.125 135.054688 C 100.074219 134.636719 100.027344 134.214844 99.988281 133.792969 L 99.960938 133.480469 L 99.9375 133.167969 C 99.921875 132.957031 99.902344 132.746094 99.894531 132.539062 C 99.890625 132.511719 99.863281 131.9375 99.859375 131.90625 L 99.839844 131.277344 C 99.839844 131.230469 99.839844 131.160156 99.839844 131.109375 C 99.839844 131.058594 99.835938 130.992188 99.835938 130.941406 C 99.835938 130.84375 99.832031 130.703125 99.832031 130.605469 C 99.832031 130.507812 99.832031 130.367188 99.832031 130.269531 C 99.832031 130.15625 99.835938 130.042969 99.835938 129.933594 C 99.839844 129.566406 99.851562 129.203125 99.867188 128.835938 C 99.875 128.65625 99.890625 128.390625 99.902344 128.207031 C 99.902344 128.195312 99.921875 127.90625 99.921875 127.894531 C 99.921875 127.882812 99.945312 127.59375 99.945312 127.582031 C 99.960938 127.375 99.976562 127.164062 99.996094 126.957031 C 99.996094 126.933594 100.058594 126.359375 100.0625 126.335938 C 100.09375 126.066406 100.125 125.800781 100.160156 125.53125 C 100.1875 125.308594 100.21875 125.085938 100.253906 124.863281 C 100.300781 124.542969 100.355469 124.21875 100.414062 123.898438 L 100.476562 123.546875 C 100.496094 123.425781 100.519531 123.308594 100.542969 123.191406 L 100.660156 122.613281 C 100.703125 122.421875 100.75 122.230469 100.792969 122.039062 L 100.871094 121.6875 C 100.894531 121.570312 100.925781 121.457031 100.953125 121.339844 C 100.976562 121.242188 101.011719 121.105469 101.039062 121.007812 C 101.066406 120.898438 101.09375 120.789062 101.125 120.679688 C 101.496094 119.285156 101.945312 117.914062 102.464844 116.570312 C 102.472656 116.542969 102.6875 116.011719 102.695312 115.984375 C 102.773438 115.792969 102.855469 115.601562 102.9375 115.40625 C 102.941406 115.394531 103.050781 115.132812 103.058594 115.121094 C 103.097656 115.023438 103.136719 114.925781 103.179688 114.832031 C 103.191406 114.808594 103.425781 114.285156 103.4375 114.261719 C 103.441406 114.25 103.5625 113.988281 103.566406 113.976562 C 103.570312 113.964844 103.695312 113.707031 103.703125 113.695312 C 103.710938 113.671875 103.960938 113.15625 103.972656 113.128906 C 103.976562 113.125 104.039062 112.996094 104.039062 112.988281 C 104.042969 112.984375 104.109375 112.855469 104.113281 112.851562 C 104.117188 112.839844 104.25 112.582031 104.253906 112.570312 C 104.265625 112.550781 104.527344 112.039062 104.539062 112.015625 C 104.773438 111.570312 105 111.121094 105.226562 110.667969 C 106.429688 108.234375 107.429688 105.703125 108.160156 103.089844 C 108.1875 102.996094 108.214844 102.898438 108.242188 102.800781 C 108.25 102.777344 108.320312 102.5 108.328125 102.476562 C 108.351562 102.386719 108.375 102.292969 108.402344 102.203125 C 108.425781 102.113281 108.457031 101.988281 108.480469 101.898438 C 108.484375 101.875 108.609375 101.339844 108.617188 101.316406 C 108.640625 101.21875 108.664062 101.121094 108.683594 101.023438 C 108.6875 101.011719 108.746094 100.742188 108.75 100.730469 C 108.785156 100.554688 108.824219 100.382812 108.859375 100.210938 C 108.984375 99.597656 109.089844 98.980469 109.191406 98.359375 C 109.210938 98.230469 109.230469 98.101562 109.246094 97.972656 C 109.269531 97.808594 109.304688 97.574219 109.324219 97.410156 C 109.347656 97.222656 109.371094 97.03125 109.394531 96.84375 C 109.402344 96.761719 109.417969 96.644531 109.425781 96.5625 C 109.433594 96.476562 109.449219 96.359375 109.457031 96.277344 C 109.472656 96.085938 109.492188 95.898438 109.507812 95.707031 C 109.570312 94.988281 109.613281 94.265625 109.636719 93.542969 C 109.640625 93.371094 109.648438 93.132812 109.652344 92.960938 C 109.652344 92.792969 109.65625 92.550781 109.65625 92.382812 C 109.65625 92.1875 109.65625 91.992188 109.652344 91.800781 C 109.652344 91.714844 109.652344 91.59375 109.648438 91.507812 C 109.648438 91.421875 109.644531 91.300781 109.640625 91.214844 C 109.621094 90.386719 109.574219 89.5625 109.5 88.734375 C 109.425781 87.929688 109.332031 87.128906 109.214844 86.328125 C 109.097656 85.53125 108.953125 84.738281 108.789062 83.949219 C 108.628906 83.15625 108.4375 82.367188 108.230469 81.585938 C 108.203125 81.5 108.175781 81.378906 108.152344 81.296875 C 108.125 81.210938 108.09375 81.09375 108.070312 81.007812 C 108.015625 80.816406 107.960938 80.625 107.902344 80.433594 C 107.785156 80.035156 107.660156 79.640625 107.53125 79.25 C 107.273438 78.476562 106.996094 77.707031 106.691406 76.949219 C 106.539062 76.570312 106.378906 76.195312 106.210938 75.820312 C 106.128906 75.632812 106.042969 75.445312 105.957031 75.261719 C 105.867188 75.074219 105.777344 74.890625 105.683594 74.707031 C 105.929688 75.039062 106.160156 75.378906 106.378906 75.730469 C 106.601562 76.078125 106.8125 76.433594 107.015625 76.792969 C 107.425781 77.511719 107.804688 78.25 108.152344 79 C 108.792969 80.363281 109.339844 81.773438 109.800781 83.214844 C 109.855469 83.382812 109.910156 83.554688 109.960938 83.726562 C 110.207031 84.539062 110.425781 85.355469 110.617188 86.183594 C 110.726562 86.671875 110.828125 87.164062 110.921875 87.65625 C 110.984375 87.996094 111.042969 88.339844 111.097656 88.683594 C 111.164062 89.101562 111.222656 89.523438 111.273438 89.945312 C 111.285156 90.027344 111.300781 90.152344 111.308594 90.234375 C 111.316406 90.316406 111.332031 90.441406 111.339844 90.523438 C 111.363281 90.746094 111.386719 90.972656 111.402344 91.195312 C 111.40625 91.210938 111.429688 91.5 111.433594 91.515625 C 111.433594 91.527344 111.453125 91.8125 111.453125 91.824219 C 111.464844 92.007812 111.488281 92.273438 111.492188 92.453125 C 111.496094 92.484375 111.519531 93.0625 111.523438 93.09375 C 111.523438 93.125 111.539062 93.703125 111.539062 93.734375 C 111.550781 94.585938 111.539062 95.441406 111.496094 96.292969 C 111.488281 96.507812 111.472656 96.71875 111.457031 96.933594 C 111.457031 96.949219 111.4375 97.238281 111.433594 97.253906 C 111.433594 97.265625 111.410156 97.554688 111.40625 97.570312 C 111.386719 97.785156 111.371094 97.996094 111.347656 98.210938 C 111.34375 98.238281 111.28125 98.816406 111.277344 98.847656 C 111.171875 99.695312 111.046875 100.542969 110.878906 101.378906 C 110.875 101.394531 110.824219 101.679688 110.820312 101.695312 C 110.800781 101.800781 110.777344 101.90625 110.753906 102.011719 C 110.746094 102.039062 110.628906 102.609375 110.621094 102.636719 C 110.570312 102.847656 110.519531 103.054688 110.472656 103.261719 C 110.46875 103.277344 110.398438 103.558594 110.394531 103.574219 C 110.371094 103.675781 110.34375 103.78125 110.316406 103.882812 C 110.304688 103.914062 110.160156 104.472656 110.148438 104.503906 C 110.09375 104.710938 110.03125 104.914062 109.972656 105.121094 C 109.851562 105.53125 109.71875 105.9375 109.585938 106.34375 C 109.554688 106.445312 109.519531 106.546875 109.484375 106.648438 C 109.480469 106.660156 109.386719 106.933594 109.378906 106.949219 C 109.375 106.964844 109.277344 107.238281 109.273438 107.253906 C 109.238281 107.351562 109.203125 107.453125 109.164062 107.554688 C 109.152344 107.582031 108.949219 108.125 108.9375 108.152344 C 108.898438 108.253906 108.863281 108.355469 108.824219 108.453125 C 108.816406 108.46875 108.707031 108.734375 108.703125 108.75 C 108.6875 108.777344 108.472656 109.316406 108.460938 109.34375 C 108.375 109.539062 108.289062 109.734375 108.203125 109.929688 C 108.195312 109.945312 108.082031 110.210938 108.074219 110.222656 C 108.03125 110.320312 107.988281 110.417969 107.945312 110.515625 C 107.933594 110.535156 107.695312 111.054688 107.683594 111.074219 C 107.679688 111.085938 107.558594 111.34375 107.554688 111.355469 C 107.550781 111.367188 107.425781 111.621094 107.417969 111.632812 C 107.410156 111.652344 107.160156 112.167969 107.148438 112.1875 C 107.144531 112.191406 107.082031 112.320312 107.082031 112.324219 C 107.078125 112.332031 107.011719 112.457031 107.011719 112.460938 C 107.003906 112.472656 106.875 112.726562 106.871094 112.738281 C 106.859375 112.757812 106.597656 113.265625 106.589844 113.285156 C 105.519531 115.332031 104.59375 117.449219 103.851562 119.632812 C 103.570312 120.453125 103.316406 121.28125 103.089844 122.117188 C 103.0625 122.210938 103.035156 122.308594 103.011719 122.402344 C 103.007812 122.414062 102.941406 122.679688 102.9375 122.691406 C 102.890625 122.882812 102.839844 123.074219 102.792969 123.269531 C 102.789062 123.289062 102.664062 123.824219 102.660156 123.847656 C 102.636719 123.945312 102.613281 124.039062 102.59375 124.136719 C 102.59375 124.148438 102.535156 124.417969 102.535156 124.429688 C 102.371094 125.203125 102.234375 125.984375 102.117188 126.769531 C 101.984375 127.65625 101.882812 128.550781 101.8125 129.445312 C 101.800781 129.632812 101.78125 129.894531 101.769531 130.082031 C 101.757812 130.269531 101.742188 130.527344 101.734375 130.714844 C 101.730469 130.824219 101.726562 130.929688 101.722656 131.035156 C 101.714844 131.175781 101.710938 131.355469 101.707031 131.496094 C 101.707031 131.589844 101.699219 131.71875 101.699219 131.8125 C 101.699219 131.90625 101.695312 132.035156 101.695312 132.128906 C 101.6875 132.980469 101.703125 133.832031 101.75 134.683594 C 101.777344 135.214844 101.816406 135.742188 101.867188 136.269531 C 101.941406 137.066406 102.039062 137.859375 102.15625 138.648438 C 102.21875 139.046875 102.285156 139.445312 102.355469 139.84375 C 102.375 139.941406 102.398438 140.070312 102.417969 140.167969 C 102.4375 140.277344 102.457031 140.382812 102.480469 140.492188 C 102.5 140.585938 102.523438 140.71875 102.546875 140.816406 C 102.558594 140.878906 102.574219 140.945312 102.585938 141.011719 C 102.59375 141.050781 102.605469 141.09375 102.613281 141.136719 C 102.660156 141.355469 102.707031 141.570312 102.757812 141.785156 C 102.808594 142 102.859375 142.214844 102.914062 142.429688 C 102.9375 142.527344 102.96875 142.660156 102.992188 142.753906 C 103.019531 142.851562 103.050781 142.980469 103.078125 143.078125 C 103.101562 143.167969 103.125 143.257812 103.148438 143.347656 C 103.183594 143.472656 103.21875 143.597656 103.253906 143.722656 C 103.308594 143.914062 103.382812 144.179688 103.441406 144.367188 C 103.503906 144.582031 103.570312 144.796875 103.640625 145.011719 C 103.707031 145.226562 103.777344 145.441406 103.847656 145.652344 C 104.066406 146.300781 104.296875 146.941406 104.550781 147.578125 C 104.59375 147.691406 104.640625 147.804688 104.683594 147.914062 C 104.835938 148.289062 104.992188 148.660156 105.160156 149.027344 C 105.242188 149.210938 105.324219 149.394531 105.414062 149.574219 C 105.5 149.757812 105.589844 149.941406 105.683594 150.117188 C 105.4375 149.789062 105.207031 149.445312 104.984375 149.097656 C 104.765625 148.746094 104.554688 148.390625 104.347656 148.03125 C 103.941406 147.3125 103.5625 146.574219 103.214844 145.824219 " fill-opacity="1" fill-rule="nonzero"/></g><g clip-path="url(#315a09323f)"><path fill="#b29676" d="M 228.757812 145.824219 C 228.054688 144.320312 227.464844 142.761719 226.976562 141.167969 C 226.734375 140.375 226.523438 139.574219 226.332031 138.765625 C 226.140625 137.945312 225.980469 137.121094 225.84375 136.289062 C 225.8125 136.082031 225.78125 135.878906 225.75 135.671875 C 225.746094 135.648438 225.671875 135.078125 225.667969 135.054688 C 225.617188 134.636719 225.566406 134.214844 225.53125 133.792969 L 225.5 133.480469 L 225.476562 133.167969 C 225.460938 132.957031 225.445312 132.746094 225.433594 132.539062 C 225.429688 132.511719 225.40625 131.9375 225.402344 131.90625 L 225.382812 131.277344 C 225.382812 131.230469 225.378906 131.160156 225.378906 131.109375 C 225.378906 131.058594 225.378906 130.992188 225.378906 130.941406 C 225.378906 130.84375 225.375 130.703125 225.375 130.605469 C 225.375 130.507812 225.375 130.367188 225.375 130.269531 C 225.375 130.15625 225.375 130.042969 225.378906 129.933594 C 225.382812 129.566406 225.394531 129.203125 225.410156 128.835938 C 225.417969 128.65625 225.429688 128.390625 225.441406 128.207031 C 225.441406 128.195312 225.460938 127.90625 225.460938 127.894531 C 225.460938 127.882812 225.488281 127.59375 225.488281 127.582031 C 225.503906 127.375 225.519531 127.164062 225.539062 126.957031 C 225.539062 126.933594 225.601562 126.359375 225.601562 126.335938 C 225.632812 126.066406 225.667969 125.800781 225.703125 125.53125 C 225.730469 125.308594 225.761719 125.085938 225.792969 124.863281 C 225.84375 124.542969 225.894531 124.21875 225.957031 123.898438 L 226.015625 123.546875 C 226.035156 123.425781 226.0625 123.308594 226.082031 123.191406 L 226.203125 122.613281 C 226.246094 122.421875 226.289062 122.230469 226.335938 122.039062 L 226.410156 121.6875 C 226.4375 121.570312 226.46875 121.457031 226.496094 121.339844 C 226.519531 121.242188 226.554688 121.105469 226.578125 121.007812 C 226.605469 120.898438 226.636719 120.789062 226.664062 120.679688 C 227.039062 119.285156 227.484375 117.914062 228.007812 116.570312 C 228.015625 116.542969 228.226562 116.011719 228.234375 115.984375 C 228.3125 115.792969 228.398438 115.601562 228.476562 115.40625 C 228.480469 115.394531 228.59375 115.132812 228.597656 115.121094 C 228.640625 115.023438 228.679688 114.925781 228.722656 114.832031 C 228.734375 114.808594 228.96875 114.285156 228.980469 114.261719 C 228.984375 114.25 229.101562 113.988281 229.109375 113.976562 C 229.113281 113.964844 229.238281 113.707031 229.242188 113.695312 C 229.253906 113.671875 229.503906 113.15625 229.515625 113.128906 C 229.515625 113.125 229.578125 112.996094 229.582031 112.988281 C 229.585938 112.984375 229.652344 112.855469 229.652344 112.851562 C 229.660156 112.839844 229.789062 112.582031 229.796875 112.570312 C 229.804688 112.550781 230.070312 112.039062 230.078125 112.015625 C 230.3125 111.570312 230.542969 111.121094 230.765625 110.667969 C 231.972656 108.234375 232.96875 105.703125 233.699219 103.089844 C 233.726562 102.996094 233.757812 102.898438 233.78125 102.800781 C 233.789062 102.777344 233.863281 102.5 233.871094 102.476562 C 233.894531 102.386719 233.917969 102.292969 233.941406 102.203125 C 233.964844 102.113281 234 101.988281 234.019531 101.898438 C 234.027344 101.875 234.152344 101.339844 234.160156 101.316406 C 234.179688 101.21875 234.207031 101.121094 234.226562 101.023438 C 234.230469 101.011719 234.285156 100.742188 234.289062 100.730469 C 234.328125 100.554688 234.363281 100.382812 234.398438 100.210938 C 234.523438 99.597656 234.632812 98.980469 234.730469 98.359375 C 234.75 98.230469 234.769531 98.101562 234.789062 97.972656 C 234.8125 97.808594 234.847656 97.574219 234.867188 97.410156 C 234.890625 97.222656 234.914062 97.03125 234.9375 96.84375 C 234.945312 96.761719 234.960938 96.644531 234.96875 96.5625 C 234.976562 96.476562 234.988281 96.359375 234.996094 96.277344 C 235.015625 96.085938 235.035156 95.898438 235.050781 95.707031 C 235.113281 94.988281 235.15625 94.265625 235.179688 93.542969 C 235.183594 93.371094 235.191406 93.132812 235.191406 92.960938 C 235.195312 92.792969 235.199219 92.550781 235.199219 92.382812 C 235.199219 92.1875 235.195312 91.992188 235.195312 91.800781 C 235.191406 91.714844 235.195312 91.59375 235.191406 91.507812 C 235.1875 91.421875 235.1875 91.300781 235.183594 91.214844 C 235.160156 90.386719 235.113281 89.5625 235.039062 88.734375 C 234.96875 87.929688 234.871094 87.128906 234.753906 86.328125 C 234.636719 85.53125 234.496094 84.738281 234.332031 83.949219 C 234.167969 83.15625 233.980469 82.367188 233.769531 81.585938 C 233.746094 81.5 233.71875 81.378906 233.691406 81.296875 C 233.667969 81.210938 233.636719 81.09375 233.613281 81.007812 C 233.558594 80.816406 233.5 80.625 233.445312 80.433594 C 233.328125 80.035156 233.203125 79.640625 233.070312 79.25 C 232.816406 78.476562 232.539062 77.707031 232.230469 76.949219 C 232.078125 76.570312 231.917969 76.195312 231.753906 75.820312 C 231.671875 75.632812 231.585938 75.445312 231.496094 75.261719 C 231.410156 75.074219 231.320312 74.890625 231.222656 74.707031 C 231.472656 75.039062 231.703125 75.378906 231.921875 75.730469 C 232.144531 76.078125 232.355469 76.433594 232.558594 76.792969 C 232.964844 77.511719 233.34375 78.25 233.695312 79 C 234.335938 80.363281 234.882812 81.773438 235.34375 83.214844 C 235.398438 83.382812 235.453125 83.554688 235.503906 83.726562 C 235.75 84.539062 235.964844 85.355469 236.15625 86.183594 C 236.269531 86.671875 236.371094 87.164062 236.460938 87.65625 C 236.527344 87.996094 236.585938 88.339844 236.640625 88.683594 C 236.707031 89.101562 236.765625 89.523438 236.816406 89.945312 C 236.828125 90.027344 236.84375 90.152344 236.851562 90.234375 C 236.859375 90.316406 236.875 90.441406 236.882812 90.523438 C 236.90625 90.746094 236.925781 90.972656 236.945312 91.195312 C 236.949219 91.210938 236.972656 91.5 236.972656 91.515625 C 236.976562 91.527344 236.992188 91.8125 236.996094 91.824219 C 237.007812 92.007812 237.027344 92.273438 237.035156 92.453125 C 237.039062 92.484375 237.0625 93.0625 237.0625 93.09375 C 237.066406 93.125 237.078125 93.703125 237.082031 93.734375 C 237.09375 94.585938 237.082031 95.441406 237.039062 96.292969 C 237.03125 96.507812 237.011719 96.71875 237 96.933594 C 236.996094 96.949219 236.976562 97.238281 236.976562 97.253906 C 236.976562 97.265625 236.949219 97.554688 236.949219 97.570312 C 236.929688 97.785156 236.910156 97.996094 236.890625 98.210938 C 236.886719 98.238281 236.820312 98.816406 236.816406 98.847656 C 236.710938 99.695312 236.589844 100.542969 236.421875 101.378906 C 236.417969 101.394531 236.363281 101.679688 236.363281 101.695312 C 236.339844 101.800781 236.316406 101.90625 236.296875 102.011719 C 236.289062 102.039062 236.167969 102.609375 236.160156 102.636719 C 236.113281 102.847656 236.0625 103.054688 236.011719 103.261719 C 236.007812 103.277344 235.941406 103.558594 235.9375 103.574219 C 235.914062 103.675781 235.882812 103.78125 235.855469 103.882812 C 235.847656 103.914062 235.699219 104.472656 235.691406 104.503906 C 235.632812 104.710938 235.574219 104.914062 235.511719 105.121094 C 235.394531 105.53125 235.257812 105.9375 235.128906 106.34375 C 235.097656 106.445312 235.0625 106.546875 235.027344 106.648438 C 235.019531 106.660156 234.925781 106.933594 234.921875 106.949219 C 234.914062 106.964844 234.820312 107.238281 234.816406 107.253906 C 234.777344 107.351562 234.742188 107.453125 234.707031 107.554688 C 234.691406 107.582031 234.492188 108.125 234.480469 108.152344 C 234.441406 108.253906 234.402344 108.355469 234.363281 108.453125 C 234.359375 108.46875 234.25 108.734375 234.242188 108.75 C 234.230469 108.777344 234.015625 109.316406 234 109.34375 C 233.917969 109.539062 233.832031 109.734375 233.746094 109.929688 C 233.738281 109.945312 233.625 110.210938 233.617188 110.222656 C 233.574219 110.320312 233.53125 110.417969 233.484375 110.515625 C 233.472656 110.535156 233.238281 111.054688 233.226562 111.074219 C 233.21875 111.085938 233.101562 111.34375 233.097656 111.355469 C 233.089844 111.367188 232.964844 111.621094 232.960938 111.632812 C 232.949219 111.652344 232.699219 112.167969 232.691406 112.1875 C 232.6875 112.191406 232.625 112.320312 232.621094 112.324219 C 232.621094 112.332031 232.554688 112.457031 232.550781 112.460938 C 232.546875 112.472656 232.417969 112.726562 232.410156 112.738281 C 232.402344 112.757812 232.140625 113.265625 232.128906 113.285156 C 231.0625 115.332031 230.136719 117.449219 229.394531 119.632812 C 229.113281 120.453125 228.859375 121.28125 228.632812 122.117188 C 228.605469 122.210938 228.578125 122.308594 228.554688 122.402344 C 228.550781 122.414062 228.484375 122.679688 228.480469 122.691406 C 228.433594 122.882812 228.382812 123.074219 228.335938 123.269531 C 228.328125 123.289062 228.207031 123.824219 228.203125 123.847656 C 228.179688 123.945312 228.15625 124.039062 228.136719 124.136719 C 228.132812 124.148438 228.078125 124.417969 228.078125 124.429688 C 227.910156 125.203125 227.777344 125.984375 227.65625 126.769531 C 227.527344 127.65625 227.425781 128.550781 227.355469 129.445312 C 227.339844 129.632812 227.320312 129.894531 227.3125 130.082031 C 227.300781 130.269531 227.285156 130.527344 227.277344 130.714844 C 227.269531 130.824219 227.265625 130.929688 227.261719 131.035156 C 227.257812 131.175781 227.25 131.355469 227.25 131.496094 C 227.246094 131.589844 227.242188 131.71875 227.242188 131.8125 C 227.242188 131.90625 227.238281 132.035156 227.238281 132.128906 C 227.230469 132.980469 227.246094 133.832031 227.292969 134.683594 C 227.320312 135.214844 227.359375 135.742188 227.410156 136.269531 C 227.480469 137.066406 227.582031 137.859375 227.699219 138.648438 C 227.757812 139.046875 227.824219 139.445312 227.898438 139.84375 C 227.917969 139.941406 227.941406 140.070312 227.957031 140.167969 C 227.980469 140.277344 228 140.382812 228.023438 140.492188 C 228.042969 140.585938 228.066406 140.71875 228.085938 140.816406 C 228.101562 140.878906 228.113281 140.945312 228.128906 141.011719 C 228.136719 141.050781 228.144531 141.09375 228.15625 141.136719 C 228.199219 141.355469 228.25 141.570312 228.296875 141.785156 C 228.347656 142 228.398438 142.214844 228.453125 142.429688 C 228.480469 142.527344 228.507812 142.660156 228.535156 142.753906 C 228.5625 142.851562 228.59375 142.980469 228.621094 143.078125 C 228.644531 143.167969 228.667969 143.257812 228.691406 143.347656 C 228.726562 143.472656 228.761719 143.597656 228.796875 143.722656 C 228.851562 143.914062 228.921875 144.179688 228.984375 144.367188 C 229.046875 144.582031 229.113281 144.796875 229.179688 145.011719 C 229.25 145.226562 229.316406 145.441406 229.390625 145.652344 C 229.605469 146.300781 229.839844 146.941406 230.089844 147.578125 C 230.136719 147.691406 230.179688 147.804688 230.226562 147.914062 C 230.375 148.289062 230.535156 148.660156 230.699219 149.027344 C 230.78125 149.210938 230.867188 149.394531 230.953125 149.574219 C 231.042969 149.757812 231.128906 149.941406 231.222656 150.117188 C 230.976562 149.789062 230.75 149.445312 230.527344 149.097656 C 230.304688 148.746094 230.09375 148.390625 229.890625 148.03125 C 229.484375 147.3125 229.105469 146.574219 228.757812 145.824219 " fill-opacity="1" fill-rule="nonzero"/></g><g clip-path="url(#f15706ae34)"><path fill="#b29676" d="M 164.496094 151.375 C 163.375 148.972656 162.433594 146.480469 161.652344 143.929688 C 161.265625 142.664062 160.925781 141.382812 160.625 140.089844 C 160.316406 138.777344 160.0625 137.457031 159.84375 136.128906 C 159.792969 135.800781 159.738281 135.472656 159.691406 135.140625 C 159.683594 135.101562 159.566406 134.195312 159.558594 134.152344 C 159.476562 133.484375 159.398438 132.8125 159.339844 132.136719 L 159.292969 131.636719 L 159.253906 131.132812 C 159.230469 130.800781 159.203125 130.464844 159.1875 130.128906 C 159.179688 130.085938 159.136719 129.167969 159.132812 129.121094 L 159.105469 128.113281 C 159.101562 128.035156 159.101562 127.925781 159.097656 127.847656 C 159.097656 127.769531 159.097656 127.65625 159.097656 127.578125 C 159.09375 127.421875 159.089844 127.195312 159.089844 127.039062 C 159.09375 126.882812 159.089844 126.660156 159.089844 126.5 C 159.089844 126.320312 159.09375 126.140625 159.09375 125.960938 C 159.105469 125.378906 159.121094 124.796875 159.148438 124.214844 C 159.160156 123.921875 159.179688 123.496094 159.199219 123.203125 C 159.199219 123.183594 159.230469 122.726562 159.230469 122.703125 C 159.230469 122.683594 159.269531 122.226562 159.269531 122.207031 C 159.296875 121.875 159.320312 121.539062 159.351562 121.207031 C 159.355469 121.167969 159.453125 120.253906 159.457031 120.210938 C 159.503906 119.78125 159.558594 119.355469 159.613281 118.925781 C 159.660156 118.570312 159.707031 118.214844 159.761719 117.859375 C 159.839844 117.34375 159.925781 116.828125 160.023438 116.316406 L 160.117188 115.75 C 160.148438 115.5625 160.1875 115.375 160.226562 115.1875 L 160.414062 114.261719 C 160.480469 113.953125 160.554688 113.648438 160.625 113.339844 L 160.75 112.78125 C 160.789062 112.59375 160.839844 112.410156 160.882812 112.222656 C 160.921875 112.070312 160.976562 111.851562 161.015625 111.695312 C 161.0625 111.519531 161.109375 111.34375 161.15625 111.171875 C 161.75 108.941406 162.464844 106.742188 163.300781 104.59375 C 163.3125 104.554688 163.652344 103.703125 163.667969 103.664062 C 163.792969 103.355469 163.921875 103.046875 164.050781 102.738281 C 164.058594 102.71875 164.238281 102.296875 164.246094 102.277344 C 164.308594 102.125 164.375 101.96875 164.445312 101.820312 C 164.460938 101.78125 164.839844 100.945312 164.855469 100.90625 C 164.863281 100.886719 165.050781 100.46875 165.058594 100.449219 C 165.070312 100.429688 165.269531 100.019531 165.277344 100 C 165.292969 99.960938 165.691406 99.136719 165.710938 99.097656 C 165.714844 99.089844 165.816406 98.882812 165.820312 98.875 C 165.824219 98.863281 165.929688 98.660156 165.933594 98.648438 C 165.941406 98.632812 166.152344 98.222656 166.160156 98.203125 C 166.175781 98.167969 166.597656 97.351562 166.613281 97.316406 C 166.988281 96.601562 167.355469 95.882812 167.710938 95.160156 C 169.640625 91.265625 171.234375 87.21875 172.40625 83.046875 C 172.449219 82.890625 172.496094 82.738281 172.535156 82.582031 C 172.546875 82.546875 172.664062 82.097656 172.675781 82.0625 C 172.714844 81.917969 172.753906 81.769531 172.789062 81.625 C 172.828125 81.480469 172.878906 81.28125 172.914062 81.136719 C 172.925781 81.101562 173.125 80.242188 173.136719 80.207031 C 173.171875 80.050781 173.210938 79.894531 173.246094 79.738281 C 173.25 79.71875 173.339844 79.289062 173.347656 79.269531 C 173.40625 78.992188 173.464844 78.714844 173.523438 78.4375 C 173.722656 77.457031 173.894531 76.472656 174.050781 75.480469 C 174.085938 75.273438 174.113281 75.066406 174.144531 74.859375 C 174.179688 74.597656 174.234375 74.222656 174.269531 73.960938 C 174.308594 73.65625 174.34375 73.359375 174.378906 73.054688 C 174.394531 72.921875 174.417969 72.734375 174.429688 72.601562 C 174.441406 72.46875 174.464844 72.28125 174.476562 72.148438 C 174.507812 71.847656 174.535156 71.542969 174.5625 71.238281 C 174.660156 70.089844 174.730469 68.933594 174.769531 67.777344 C 174.773438 67.503906 174.789062 67.121094 174.789062 66.847656 C 174.792969 66.578125 174.800781 66.191406 174.796875 65.921875 C 174.800781 65.609375 174.796875 65.300781 174.792969 64.988281 C 174.789062 64.851562 174.789062 64.660156 174.785156 64.523438 C 174.78125 64.386719 174.78125 64.191406 174.777344 64.054688 C 174.742188 62.734375 174.664062 61.410156 174.546875 60.089844 C 174.433594 58.800781 174.277344 57.519531 174.089844 56.238281 C 173.902344 54.96875 173.675781 53.699219 173.414062 52.4375 C 173.152344 51.171875 172.851562 49.910156 172.515625 48.65625 C 172.476562 48.523438 172.429688 48.328125 172.390625 48.195312 C 172.351562 48.0625 172.300781 47.867188 172.261719 47.734375 C 172.175781 47.425781 172.085938 47.121094 171.996094 46.8125 C 171.804688 46.179688 171.605469 45.550781 171.398438 44.921875 C 170.988281 43.683594 170.542969 42.457031 170.054688 41.246094 C 169.8125 40.636719 169.554688 40.035156 169.289062 39.4375 C 169.15625 39.136719 169.019531 38.839844 168.878906 38.542969 C 168.738281 38.246094 168.597656 37.949219 168.445312 37.660156 C 168.839844 38.1875 169.207031 38.734375 169.558594 39.292969 C 169.914062 39.851562 170.25 40.417969 170.578125 40.992188 C 171.230469 42.144531 171.835938 43.324219 172.394531 44.523438 C 173.417969 46.703125 174.292969 48.957031 175.03125 51.257812 C 175.117188 51.53125 175.203125 51.808594 175.289062 52.082031 C 175.679688 53.378906 176.027344 54.6875 176.332031 56.007812 C 176.511719 56.789062 176.671875 57.578125 176.820312 58.367188 C 176.921875 58.910156 177.015625 59.457031 177.101562 60.003906 C 177.210938 60.675781 177.304688 61.347656 177.386719 62.023438 C 177.402344 62.15625 177.425781 62.355469 177.441406 62.484375 C 177.453125 62.617188 177.476562 62.816406 177.492188 62.949219 C 177.527344 63.304688 177.5625 63.667969 177.59375 64.027344 C 177.59375 64.050781 177.632812 64.511719 177.636719 64.535156 C 177.640625 64.554688 177.671875 65.011719 177.671875 65.03125 C 177.6875 65.320312 177.726562 65.746094 177.734375 66.035156 C 177.738281 66.085938 177.78125 67.007812 177.78125 67.058594 C 177.785156 67.105469 177.804688 68.03125 177.808594 68.082031 C 177.828125 69.445312 177.8125 70.8125 177.742188 72.175781 C 177.726562 72.515625 177.699219 72.855469 177.679688 73.199219 C 177.675781 73.222656 177.644531 73.683594 177.644531 73.707031 C 177.640625 73.734375 177.601562 74.191406 177.597656 74.21875 C 177.566406 74.558594 177.539062 74.898438 177.503906 75.238281 C 177.496094 75.289062 177.394531 76.207031 177.386719 76.257812 C 177.21875 77.613281 177.019531 78.96875 176.753906 80.308594 C 176.75 80.332031 176.664062 80.789062 176.660156 80.816406 C 176.625 80.984375 176.589844 81.148438 176.554688 81.316406 C 176.542969 81.363281 176.351562 82.273438 176.339844 82.320312 C 176.261719 82.652344 176.179688 82.984375 176.101562 83.316406 C 176.09375 83.339844 175.988281 83.792969 175.980469 83.816406 C 175.941406 83.980469 175.894531 84.148438 175.851562 84.3125 C 175.835938 84.359375 175.601562 85.257812 175.585938 85.304688 C 175.496094 85.632812 175.398438 85.960938 175.300781 86.289062 C 175.113281 86.945312 174.894531 87.59375 174.6875 88.246094 C 174.636719 88.40625 174.582031 88.570312 174.523438 88.730469 C 174.515625 88.753906 174.363281 89.191406 174.355469 89.214844 C 174.34375 89.238281 174.195312 89.675781 174.183594 89.699219 C 174.128906 89.859375 174.070312 90.019531 174.011719 90.179688 C 173.992188 90.226562 173.667969 91.09375 173.648438 91.140625 C 173.585938 91.300781 173.527344 91.460938 173.464844 91.617188 C 173.453125 91.640625 173.28125 92.070312 173.273438 92.09375 C 173.25 92.136719 172.90625 92.996094 172.882812 93.042969 C 172.75 93.355469 172.613281 93.667969 172.476562 93.980469 C 172.464844 94.003906 172.28125 94.425781 172.269531 94.449219 C 172.203125 94.605469 172.132812 94.761719 172.058594 94.914062 C 172.042969 94.949219 171.660156 95.777344 171.644531 95.8125 C 171.636719 95.828125 171.445312 96.242188 171.4375 96.257812 C 171.429688 96.273438 171.230469 96.6875 171.21875 96.703125 C 171.203125 96.734375 170.804688 97.554688 170.789062 97.589844 C 170.785156 97.597656 170.683594 97.800781 170.679688 97.808594 C 170.675781 97.820312 170.570312 98.019531 170.566406 98.03125 C 170.558594 98.046875 170.351562 98.453125 170.34375 98.46875 C 170.328125 98.5 169.910156 99.3125 169.894531 99.347656 C 168.183594 102.617188 166.703125 106.003906 165.515625 109.492188 C 165.066406 110.804688 164.660156 112.128906 164.296875 113.46875 C 164.257812 113.621094 164.210938 113.773438 164.171875 113.925781 C 164.167969 113.941406 164.058594 114.367188 164.054688 114.386719 C 163.980469 114.691406 163.898438 115 163.824219 115.308594 C 163.816406 115.34375 163.617188 116.199219 163.609375 116.234375 C 163.578125 116.386719 163.539062 116.542969 163.507812 116.699219 C 163.503906 116.714844 163.414062 117.144531 163.410156 117.164062 C 163.148438 118.402344 162.929688 119.652344 162.742188 120.90625 C 162.53125 122.328125 162.371094 123.753906 162.257812 125.1875 C 162.234375 125.488281 162.203125 125.898438 162.1875 126.199219 C 162.167969 126.5 162.144531 126.917969 162.132812 127.21875 C 162.125 127.386719 162.117188 127.558594 162.109375 127.726562 C 162.101562 127.953125 162.09375 128.238281 162.085938 128.464844 C 162.085938 128.613281 162.078125 128.820312 162.074219 128.972656 C 162.074219 129.121094 162.070312 129.328125 162.070312 129.480469 C 162.054688 130.839844 162.082031 132.203125 162.15625 133.5625 C 162.203125 134.410156 162.261719 135.253906 162.34375 136.101562 C 162.460938 137.371094 162.617188 138.636719 162.808594 139.902344 C 162.902344 140.539062 163.011719 141.175781 163.125 141.8125 C 163.15625 141.964844 163.191406 142.175781 163.222656 142.328125 C 163.253906 142.503906 163.289062 142.675781 163.324219 142.847656 C 163.355469 143 163.394531 143.210938 163.429688 143.363281 C 163.449219 143.46875 163.472656 143.574219 163.492188 143.675781 C 163.507812 143.746094 163.523438 143.8125 163.535156 143.882812 C 163.609375 144.226562 163.6875 144.570312 163.765625 144.914062 C 163.847656 145.261719 163.929688 145.605469 164.015625 145.949219 C 164.054688 146.101562 164.101562 146.3125 164.144531 146.464844 C 164.1875 146.617188 164.238281 146.832031 164.277344 146.984375 C 164.316406 147.125 164.355469 147.269531 164.394531 147.414062 C 164.449219 147.613281 164.503906 147.816406 164.5625 148.015625 C 164.652344 148.320312 164.765625 148.742188 164.859375 149.046875 C 164.960938 149.390625 165.066406 149.734375 165.175781 150.078125 C 165.285156 150.417969 165.394531 150.757812 165.511719 151.097656 C 165.859375 152.136719 166.230469 153.164062 166.632812 154.183594 C 166.703125 154.363281 166.773438 154.539062 166.847656 154.71875 C 167.089844 155.316406 167.34375 155.90625 167.605469 156.496094 C 167.738281 156.789062 167.875 157.082031 168.011719 157.375 C 168.152344 157.664062 168.292969 157.957031 168.445312 158.242188 C 168.050781 157.714844 167.683594 157.164062 167.328125 156.605469 C 166.976562 156.050781 166.640625 155.480469 166.3125 154.90625 C 165.660156 153.757812 165.054688 152.578125 164.496094 151.375 " fill-opacity="1" fill-rule="nonzero"/></g></svg>